<?xml version="1.0" encoding="UTF-8"?>
<svg id="Calque_2" data-name="Calque 2" xmlns="http://www.w3.org/2000/svg" viewBox="0 0 1087.56 582.07">
  <defs>
    <style>
      .cls-1 {
        font-family: RoundedElegance-Regular, 'Rounded Elegance';
        stroke: #d7be59;
        stroke-miterlimit: 10;
        stroke-width: 10px;
      }

      .cls-1, .cls-2 {
        fill: #d7be59;
      }

      .cls-3 {
        font-size: 150px;
      }

      .cls-4 {
        font-size: 200px;
      }

      .cls-5 {
        letter-spacing: -.02em;
      }
    </style>
  </defs>
  <g id="Calque_1-2" data-name="Calque 1">
    <g>
      <path class="cls-2" d="M305.85,253.27c1.94,1.95,4.07,2.82,6.8,2.8,8.85-.07,17.7-.02,26.55-.03,.61,0,1.22-.06,2.07-.1-.36-.46-.52-.71-.73-.92-9.9-9.91-19.77-19.86-29.74-29.69-4.74-4.68-10.6-6.91-17.27-6.93-6.11-.03-12.23,0-18.34,0-1.24,0-2.49,0-4.08,0,.64,.7,1.01,1.11,1.4,1.5,11.12,11.12,22.27,22.22,33.34,33.39Z"/>
      <path class="cls-2" d="M299.58,329.66c8.43,.21,16.16-5.2,18.32-12.91h-35.46c1.64,7.04,9.24,12.71,17.14,12.91Z"/>
      <path class="cls-2" d="M275.57,329.57c-1.6-3.78-3.34-7.56-4.78-11.45-.45-1.22-.88-1.55-2.07-1.54-7.83,.04-15.66,.02-23.49,.03-.43,0-.85,.08-1.28,.12l.42,.29c-1.93,4.21-3.86,8.43-5.75,12.55h36.94Z"/>
      <path class="cls-2" d="M587.76,139.73c-4.42-11.49-16.5-21.91-31.89-21.75-8.8,.09-17.59-.08-26.39,.04-15.04,.21-25.7,7.46-31.94,20.92-4.56,9.86-8.49,20.01-12.73,30.02-22.64,53.34-44.7,106.92-66.62,160.56-2.48,6.06-4.69,12.24-7.04,18.36-.31,.81-.47,1.7-1.09,2.39-.76-.37-.8-1.16-1.04-1.79-9.85-26.45-21.1-52.33-31.7-78.47-17.66-43.55-36.57-86.58-54.86-129.87-4.74-11.21-12.95-18.4-24.79-21.38-1.94-.49-3.92-.76-5.93-.76-10.16,.01-20.31,.01-30.47,.03-2.1,0-2.12,.05-2.91-1.96-5.82-14.63-11.64-29.26-17.46-43.89-6.7-16.86-13.38-33.73-20.11-50.57-4.26-10.68-11.92-17.57-23.1-20.47-1.59-.41-3.3-.31-4.79-1.14h-23.51c-1.08,.82-2.43,.58-3.64,.88-11.7,2.83-19.95,9.59-24.44,20.9-7.93,19.98-15.93,39.94-23.94,59.89-27.13,67.56-54.25,135.13-80.58,203.02-7.54,19.44-14.54,39.1-21.78,58.66-3.88,10.49-7.75,20.99-11.64,31.48-1.06,2.85-1.99,5.74-2.49,8.75-.13,.78-.23,1.59-.87,2.18v5.76c.75,.73,.77,1.72,.93,2.65,2.51,14.94,15.33,26.77,30.5,28.16,1.83,.17,3.67,.25,5.51,.25,8,0,16,.15,23.99-.04,15.15-.36,26.2-7.49,32.21-21.32,14.3-32.91,28.37-65.93,42.23-99.02,12.85-30.66,25.34-61.48,37.93-92.25,2.36-5.77,4.45-11.64,6.69-17.46,.28-.73,.4-1.55,1.1-2.23,.55,.36,.68,.97,.89,1.52,2.01,5.14,4.05,10.28,6.09,15.41,.38-.11,.78-.19,1.21-.24,.57-.06,1.15-.02,1.72-.02,33.82,0,67.64,.04,101.46-.02,10.9-.02,20.06,3.79,27.74,11.52,16.48,16.58,33.02,33.09,49.59,49.58,5.13,5.11,8.51,11.05,9.48,18.28,.04,.31,.2,.6,.31,.9v6.5c-.11,.22-.27,.43-.31,.66-2.51,13.59-12.86,22.26-26.62,22.28-5.35,0-10.69,0-16.04,0h-6.07c-2.1,4.59-4.03,8.82-5.97,13.08h2.07c15.21,0,30.42,.05,45.62-.04,3.52-.02,6.04,1.13,7.32,4.53v2.68c-1.39,3.31-3.89,4.35-7.42,4.35-42.98-.05-85.96-.05-128.94-.05,6.19,14.71,12.38,29.41,18.56,44.12,2.26,5.38,4.43,10.8,6.82,16.12,5,11.12,13.5,17.99,25.43,20.55,2.19,.47,4.43,.62,6.67,.63,8.56,.02,17.11,.01,25.67,0,.96,0,1.92-.05,2.87-.15,2.75-.28,2.33-.18,3.24,2.07,2.05,5.03,4.05,10.09,6.07,15.13,10.26,25.59,20.51,51.19,30.77,76.78,.3,.74,.57,1.49,.85,2.24,4.21,10.99,12.2,17.7,23.47,20.69,1.53,.41,3.09,.7,4.64,1.05,6.32,.02,12.63,.13,18.95,.06,15.92-.18,27.3-8.49,32.72-22.17,22.98-58.03,46.13-116,69.13-174.03,11.81-29.79,23.61-59.59,35.11-89.5,8.23-21.41,15.97-43,23.93-64.51,3.19-8.62,6.42-17.23,9.55-25.86,2.97-8.17,3.25-16.43,.11-24.61Z"/>
    </g>
    <g>
      <path class="cls-2" d="M363.69,278.39c-3.11-3.61-6.62-6.89-10.05-10.2-.53-.51-1.61-.64-2.44-.65-12.67-.04-25.35-.12-38.02,.01-6.31,.07-11.42-2.08-15.86-6.58-13.64-13.83-27.45-27.49-41.15-41.27-.99-.99-1.96-1.35-3.33-1.35-20.11,.04-40.22,.04-60.33,.02,1.74,4.36,3.51,8.72,5.27,13.07,15.19,0,30.38,.01,45.57-.03,2.66,0,4.74,.8,6.63,2.72,7.64,7.76,15.38,15.42,23.07,23.13,2.85,2.86,2.95,6.65,.04,8.81-1.13,.84-2.79,1.37-4.22,1.38-18.8,.06-37.59,.06-56.39,.05,5.18,12.56,10.38,25.1,15.62,37.64,41.48,0,82.97,0,124.45,0,7.59,0,13.62-4.44,15.11-11.24,1.27-5.79-.15-11.08-3.97-15.51Z"/>
      <path class="cls-2" d="M255.63,256.05c-4.5-4.5-8.56-8.62-12.72-12.64-.48-.47-1.53-.48-2.31-.48-12.73-.02-25.46-.02-38.2-.02,1.78,4.39,3.58,8.77,5.37,13.15,14.98,0,29.96,0,44.95,0h2.91Z"/>
    </g>
    <text class="cls-1" transform="translate(585.78 329.98)"><tspan class="cls-4"><tspan x="0" y="0">Ga</tspan><tspan class="cls-5" x="308.98" y="0">r</tspan><tspan x="365.92" y="0">e</tspan></tspan><tspan class="cls-3"><tspan x="11.49" y="180">à vous</tspan></tspan></text>
  </g>
</svg>